# xmcd CD database file generated by OrangeCD 4.3
#
# Track frame offsets:
#	180
#	12940
#	25404
#	36657
#	49766
#	61063
#	70093
#	83834
#	97293
#	109307
#	121726
#	132974
#	143736
#	157590
#	168905
#	180372
#	190667
#	204093
#	216827
#	227001
#	239302
#	251844
#	262403
#	273880
#	284834
#	295462
#	305804
#	317724
#
# Disc length: 4400 seconds
#
# Revision: 0
# Processed by: cddbd v1.4PL0 Copyright (c) Steve Scherf et al.
# Submitted via: OrangeCD 4.3
#
DISCID=a1112e1c
DTITLE=Midnighters - Ring A Ling
DYEAR=1997
DGENRE=Blues
TTITLE0=Annie's Aunt Fannie
TTITLE1=Ring A Ling
TTITLE2=Ow Wow Ooo Wee
TTITLE3=Don't Say Your Last Goodbye
TTITLE4=Sexy Ways
TTITLE5=That Woman
TTITLE6=Crazy Lovin' (Stay With Me)
TTITLE7=Ashamed Of Myself
TTITLE8=Look- A Here
TTITLE9=Henry's Got Flat Feet
TTITLE10=Don't Change Your Pretty Ways
TTITLE11=Whatsoever You Do
TTITLE12=I'll Be Home Someday
TTITLE13=Swichie Witchie Titchie
TTITLE14=Give It Up
TTITLE15=Early One Morning
TTITLE16=Stingy Little Thing
TTITLE17=It's Love Baby (24 Hours A Day)
TTITLE18=We'll Never Meet Again
TTITLE19=Ooh Bah Baby
TTITLE20=Tore Up Over You
TTITLE21=Come On And Get It
TTITLE22=Baby Please
TTITLE23=That House On The Hill
TTITLE24=In The Doorway Crying
TTITLE25=Is Your Love For Real
TTITLE26=Let 'Em Roll
TTITLE27=Sweet Mama, Do Right
EXTD=
EXTT0=
EXTT1=
EXTT2=
EXTT3=
EXTT4=
EXTT5=
EXTT6=
EXTT7=
EXTT8=
EXTT9=
EXTT10=
EXTT11=
EXTT12=
EXTT13=
EXTT14=
EXTT15=
EXTT16=
EXTT17=
EXTT18=
EXTT19=
EXTT20=
EXTT21=
EXTT22=
EXTT23=
EXTT24=
EXTT25=
EXTT26=
EXTT27=
PLAYORDER=
